<svg id="svg" version="1.1" xmlns="http://www.w3.org/2000/svg" xmlns:xlink="http://www.w3.org/1999/xlink" width="400" height="400" viewBox="0, 0, 400,400"><g id="svgg"><path id="path0" d="M122.500 99.667 L 122.500 113.333 149.750 113.333 C 164.737 113.333,177.000 113.315,177.000 113.292 C 177.000 113.269,177.365 112.162,177.811 110.833 C 178.257 109.504,178.898 107.554,179.236 106.500 C 179.573 105.446,179.911 104.433,179.986 104.250 C 180.061 104.067,181.226 100.542,182.576 96.417 C 183.925 92.292,185.092 88.767,185.168 88.583 C 185.517 87.748,185.960 86.183,185.874 86.096 C 185.821 86.043,171.540 86.000,154.139 86.000 L 122.500 86.000 122.500 99.667 M214.700 86.458 C 214.604 86.710,214.327 87.554,214.084 88.333 C 213.841 89.112,213.582 89.900,213.509 90.083 C 213.435 90.267,212.534 93.004,211.507 96.167 C 210.479 99.329,209.571 102.067,209.489 102.250 C 209.406 102.433,209.148 103.221,208.914 104.000 C 208.681 104.779,208.427 105.532,208.349 105.672 C 208.272 105.813,208.152 106.185,208.083 106.500 C 208.014 106.815,207.897 107.187,207.823 107.328 C 207.750 107.468,207.493 108.221,207.252 109.000 C 207.012 109.779,206.752 110.567,206.675 110.750 C 206.460 111.259,205.833 113.103,205.833 113.226 C 205.833 113.285,224.190 113.315,246.625 113.292 L 287.417 113.250 287.417 99.667 L 287.417 86.083 251.145 86.041 L 214.874 85.999 214.700 86.458 M122.500 151.667 L 122.500 165.333 141.063 165.333 C 155.718 165.333,159.659 165.289,159.783 165.125 C 159.869 165.010,160.220 164.017,160.563 162.917 C 160.905 161.817,161.251 160.767,161.331 160.583 C 161.411 160.400,161.674 159.612,161.917 158.833 C 162.159 158.054,162.427 157.267,162.511 157.083 C 162.596 156.900,162.884 156.031,163.151 155.151 C 163.869 152.793,166.340 145.333,166.605 144.725 C 166.730 144.436,166.833 144.106,166.833 143.992 C 166.833 143.765,167.449 141.906,167.660 141.495 C 167.732 141.354,167.847 140.979,167.915 140.661 C 167.983 140.343,168.092 140.008,168.157 139.917 C 168.295 139.721,168.667 138.463,168.667 138.189 C 168.667 138.049,162.679 138.000,145.583 138.000 L 122.500 138.000 122.500 151.667 M197.583 138.208 C 197.543 138.323,196.039 142.879,194.241 148.333 C 192.443 153.787,190.907 158.400,190.828 158.583 C 190.749 158.767,190.488 159.554,190.248 160.333 C 190.007 161.112,189.750 161.865,189.677 162.005 C 189.603 162.146,189.487 162.521,189.419 162.839 C 189.351 163.157,189.242 163.492,189.177 163.583 C 189.061 163.746,188.667 165.018,188.667 165.228 C 188.667 165.286,210.885 165.315,238.042 165.292 L 287.417 165.250 287.459 151.625 L 287.502 138.000 242.579 138.000 C 206.791 138.000,197.641 138.042,197.583 138.208 M122.500 203.667 L 122.500 217.333 132.472 217.333 L 142.444 217.333 142.636 216.958 C 142.741 216.752,143.020 215.946,143.255 215.167 C 143.491 214.387,143.749 213.600,143.830 213.417 C 143.910 213.233,144.173 212.446,144.414 211.667 C 144.654 210.887,144.913 210.135,144.988 209.995 C 145.063 209.854,145.181 209.481,145.250 209.167 C 145.319 208.852,145.436 208.479,145.510 208.339 C 145.584 208.198,145.841 207.446,146.081 206.667 C 146.321 205.887,146.579 205.100,146.655 204.917 C 146.730 204.733,147.371 202.783,148.079 200.583 C 148.786 198.383,149.430 196.433,149.508 196.250 C 149.587 196.067,149.743 195.579,149.855 195.167 C 149.967 194.754,150.112 194.342,150.177 194.250 C 150.242 194.158,150.351 193.823,150.419 193.505 C 150.487 193.188,150.601 192.813,150.674 192.672 C 150.877 192.276,151.500 190.405,151.500 190.191 C 151.500 190.049,147.797 190.000,137.000 190.000 L 122.500 190.000 122.500 203.667 M179.111 194.045 C 178.393 196.266,177.741 198.233,177.662 198.417 C 177.538 198.705,176.267 202.538,174.070 209.250 C 173.741 210.258,173.408 211.233,173.331 211.417 C 173.254 211.600,172.992 212.387,172.750 213.167 C 172.508 213.946,172.244 214.733,172.165 214.917 C 172.015 215.262,171.500 217.059,171.500 217.234 C 171.500 217.289,197.581 217.315,229.458 217.292 L 287.417 217.250 287.459 203.625 L 287.502 190.000 233.959 190.004 L 180.417 190.007 179.111 194.045 " stroke="none" fill="#f25b53" fill-rule="evenodd"></path><path id="path1" d="M232.667 274.831 L 232.667 277.662 237.625 277.706 L 242.583 277.750 242.626 296.625 L 242.668 315.500 252.334 315.500 L 262.000 315.500 262.000 312.250 L 262.000 309.000 255.583 309.000 L 249.167 309.000 249.167 290.500 L 249.167 272.000 240.917 272.000 L 232.667 272.000 232.667 274.831 M53.000 284.238 C 47.022 285.496,44.109 288.765,44.381 293.909 C 44.677 299.489,48.041 301.955,56.667 302.917 C 63.911 303.724,65.666 304.897,64.171 307.933 C 62.765 310.788,58.085 311.186,50.653 309.082 C 49.064 308.632,47.655 308.130,46.405 307.568 C 46.274 307.509,44.202 311.543,43.703 312.828 C 43.625 313.028,45.444 313.766,47.750 314.470 C 60.796 318.455,70.680 314.984,70.664 306.423 C 70.653 300.228,67.311 297.809,57.065 296.582 C 52.012 295.976,50.666 295.285,50.667 293.300 C 50.670 289.665,58.613 288.844,66.314 291.681 C 66.807 291.863,67.230 291.990,67.254 291.964 C 67.352 291.859,69.189 285.967,69.138 285.923 C 68.983 285.788,65.097 284.955,62.833 284.572 C 59.659 284.035,54.757 283.868,53.000 284.238 M87.352 284.257 C 79.436 285.975,74.795 292.830,75.524 301.728 C 76.514 313.809,87.077 318.989,101.137 314.288 L 103.192 313.602 103.094 313.080 C 102.958 312.359,101.751 308.362,101.632 308.243 C 101.579 308.190,101.248 308.268,100.896 308.415 C 96.271 310.347,89.651 310.682,86.405 309.149 C 83.957 307.992,81.145 303.774,81.944 302.458 C 81.986 302.390,87.190 302.333,93.510 302.333 L 105.000 302.333 104.999 300.375 C 104.992 291.246,101.394 285.738,94.520 284.337 C 92.550 283.936,89.015 283.897,87.352 284.257 M184.852 284.257 C 176.270 286.119,171.380 294.376,173.274 303.807 C 175.017 312.489,181.933 317.008,191.671 315.829 C 195.077 315.417,200.667 313.906,200.667 313.398 C 200.667 313.110,199.232 308.343,199.108 308.219 C 199.050 308.161,198.721 308.236,198.377 308.383 C 195.131 309.777,188.817 310.573,186.100 309.931 C 182.355 309.047,179.333 305.762,179.333 302.575 C 179.333 302.366,180.909 302.333,190.941 302.333 L 202.549 302.333 202.456 299.542 C 202.234 292.862,200.058 288.215,195.997 285.748 C 193.535 284.252,188.178 283.536,184.852 284.257 M278.019 284.257 C 270.103 285.975,265.462 292.830,266.191 301.728 C 267.181 313.809,277.744 318.989,291.804 314.288 L 293.858 313.602 293.760 313.080 C 293.625 312.359,292.417 308.362,292.299 308.243 C 292.246 308.190,291.915 308.268,291.562 308.415 C 286.937 310.347,280.318 310.682,277.071 309.149 C 274.624 307.992,271.812 303.774,272.610 302.458 C 272.652 302.390,277.857 302.333,284.177 302.333 L 295.667 302.333 295.665 300.375 C 295.659 291.246,292.061 285.738,285.187 284.337 C 283.217 283.936,279.682 283.897,278.019 284.257 M309.339 284.260 C 303.649 285.494,300.833 288.496,300.833 293.329 C 300.833 299.328,303.998 301.786,313.182 302.920 C 318.047 303.521,320.340 304.234,320.824 305.296 C 321.550 306.889,320.262 309.357,318.379 309.984 C 315.600 310.910,308.010 309.868,303.874 307.993 C 303.269 307.718,302.723 307.551,302.662 307.622 C 302.490 307.819,300.143 312.866,300.200 312.916 C 300.467 313.148,301.920 313.735,303.425 314.220 C 317.349 318.708,327.953 314.842,327.094 305.591 C 326.580 300.057,323.485 297.847,314.712 296.749 C 308.713 295.998,307.594 295.586,307.158 293.966 C 306.075 289.944,313.541 288.719,322.209 291.498 C 323.012 291.755,323.695 291.917,323.728 291.858 C 323.811 291.709,325.537 286.287,325.562 286.094 C 325.608 285.756,321.132 284.801,316.950 284.256 C 314.538 283.942,310.797 283.944,309.339 284.260 M341.000 284.238 C 335.022 285.496,332.109 288.765,332.381 293.909 C 332.677 299.489,336.041 301.955,344.667 302.917 C 351.911 303.724,353.666 304.897,352.171 307.933 C 350.765 310.788,346.085 311.186,338.653 309.082 C 337.064 308.632,335.655 308.130,334.405 307.568 C 334.274 307.509,332.202 311.543,331.703 312.828 C 331.625 313.028,333.444 313.766,335.750 314.470 C 348.796 318.455,358.680 314.984,358.664 306.423 C 358.653 300.228,355.311 297.809,345.065 296.582 C 340.012 295.976,338.666 295.285,338.667 293.300 C 338.670 289.665,346.613 288.844,354.314 291.681 C 354.807 291.863,355.230 291.990,355.254 291.964 C 355.352 291.859,357.189 285.967,357.138 285.923 C 356.983 285.788,353.097 284.955,350.833 284.572 C 347.659 284.035,342.757 283.868,341.000 284.238 M112.000 300.000 L 112.000 315.500 115.500 315.500 L 119.000 315.500 119.000 305.354 C 119.000 293.689,118.884 294.577,120.641 292.833 C 122.475 291.014,122.109 291.091,129.208 291.036 L 135.333 290.988 135.333 287.744 L 135.333 284.500 130.042 284.502 C 123.200 284.506,122.609 284.630,120.610 286.490 C 119.546 287.480,119.178 288.018,118.740 289.230 L 118.375 290.238 118.262 287.828 C 118.200 286.502,118.110 285.210,118.061 284.958 L 117.974 284.500 114.987 284.500 L 112.000 284.500 112.000 300.000 M140.333 284.578 C 140.333 284.710,141.147 287.441,142.918 293.250 C 143.812 296.183,144.711 299.146,144.916 299.833 C 145.883 303.078,147.902 309.738,148.327 311.083 C 148.587 311.908,148.998 313.240,149.239 314.042 L 149.677 315.500 154.566 315.500 L 159.455 315.500 159.792 314.542 C 159.977 314.015,162.093 307.396,164.495 299.833 C 166.896 292.271,168.967 285.801,169.097 285.455 C 169.227 285.109,169.333 284.752,169.333 284.660 C 169.333 284.553,168.162 284.509,166.057 284.538 L 162.781 284.583 162.081 286.750 C 160.495 291.656,154.890 308.686,154.702 309.167 C 154.555 309.545,154.506 309.469,154.171 308.333 C 152.952 304.209,150.471 295.736,149.583 292.667 C 149.278 291.612,148.676 289.550,148.246 288.083 C 147.816 286.617,147.411 285.229,147.345 285.000 L 147.226 284.583 143.780 284.538 C 141.884 284.514,140.333 284.531,140.333 284.578 M209.500 300.000 L 209.500 315.500 212.909 315.500 L 216.319 315.500 216.368 305.375 L 216.417 295.250 216.803 294.465 C 217.299 293.458,218.725 292.033,219.769 291.499 L 220.583 291.083 226.708 291.036 L 232.833 290.988 232.833 287.744 L 232.833 284.500 227.542 284.502 C 220.665 284.506,220.144 284.613,218.184 286.428 C 217.037 287.489,216.548 288.208,216.157 289.408 L 215.883 290.248 215.769 288.082 C 215.707 286.891,215.612 285.598,215.559 285.208 L 215.462 284.500 212.481 284.500 L 209.500 284.500 209.500 300.000 M94.354 290.547 C 97.055 291.580,98.667 293.652,98.667 296.091 L 98.667 296.833 90.320 296.833 L 81.974 296.833 82.080 296.292 C 83.017 291.528,89.270 288.601,94.354 290.547 M190.533 290.185 C 193.919 290.894,196.167 293.279,196.167 296.161 L 196.167 296.833 187.813 296.833 L 179.458 296.833 179.563 296.292 C 180.395 291.965,185.491 289.129,190.533 290.185 M285.021 290.547 C 287.722 291.580,289.333 293.652,289.333 296.091 L 289.333 296.833 280.987 296.833 L 272.640 296.833 272.747 296.292 C 273.684 291.528,279.936 288.601,285.021 290.547 " stroke="none" fill="#fbfbfb" fill-rule="evenodd"></path><path id="path2" d="M17.083 3.608 C 16.900 3.646,16.124 3.795,15.359 3.938 C 14.059 4.182,11.443 5.201,10.500 5.831 C 10.271 5.984,9.649 6.396,9.117 6.747 C 8.586 7.098,8.077 7.523,7.986 7.692 C 7.896 7.862,7.744 8.000,7.648 8.000 C 7.455 8.000,5.347 10.174,5.339 10.382 C 5.336 10.455,5.164 10.697,4.958 10.920 C 4.290 11.640,2.695 15.030,2.215 16.750 L 1.750 18.417 1.750 200.500 L 1.750 382.583 2.135 383.833 C 2.346 384.521,2.580 385.317,2.654 385.603 C 2.728 385.889,2.991 386.526,3.240 387.020 C 4.775 390.072,6.260 391.949,8.500 393.669 C 8.912 393.986,9.349 394.340,9.470 394.456 C 9.591 394.572,9.765 394.667,9.857 394.667 C 9.948 394.667,10.348 394.890,10.745 395.164 C 11.417 395.626,12.217 395.970,14.750 396.888 L 15.750 397.250 200.000 397.250 L 384.250 397.250 385.250 396.888 C 387.783 395.970,388.583 395.626,389.255 395.164 C 389.652 394.890,390.052 394.667,390.143 394.667 C 390.235 394.667,390.409 394.572,390.530 394.456 C 390.651 394.340,391.087 393.986,391.500 393.669 C 393.212 392.354,395.026 390.280,395.946 388.585 C 396.721 387.157,397.217 386.101,397.346 385.603 C 397.420 385.317,397.654 384.521,397.865 383.833 L 398.250 382.583 398.250 200.500 L 398.250 18.417 397.785 16.750 C 397.305 15.030,395.710 11.640,395.042 10.920 C 394.836 10.697,394.664 10.455,394.661 10.382 C 394.653 10.174,392.545 8.000,392.352 8.000 C 392.256 8.000,392.104 7.862,392.014 7.692 C 391.923 7.523,391.414 7.098,390.883 6.747 C 390.351 6.396,389.728 5.983,389.497 5.828 C 388.695 5.291,386.243 4.281,384.917 3.941 L 383.583 3.599 200.500 3.569 C 99.804 3.552,17.267 3.569,17.083 3.608 M186.072 85.981 C 186.169 86.138,185.951 86.911,185.567 87.775 C 185.438 88.064,185.333 88.367,185.333 88.449 C 185.333 88.610,184.236 92.039,184.011 92.583 C 183.935 92.767,183.672 93.554,183.428 94.333 C 183.183 95.112,182.917 95.900,182.836 96.083 C 182.756 96.267,182.117 98.217,181.417 100.417 C 180.716 102.617,180.087 104.529,180.018 104.667 C 179.948 104.804,179.686 105.592,179.433 106.417 C 179.181 107.242,178.914 108.067,178.838 108.250 C 178.763 108.433,178.502 109.221,178.258 110.000 C 178.015 110.779,177.750 111.539,177.669 111.688 C 177.589 111.837,177.472 112.228,177.411 112.557 C 177.349 112.886,177.205 113.233,177.090 113.328 C 176.947 113.446,168.294 113.488,149.649 113.459 L 122.417 113.417 122.374 99.625 L 122.331 85.833 154.156 85.833 C 172.439 85.833,186.019 85.896,186.072 85.981 M287.566 86.097 C 287.698 86.441,287.698 112.892,287.566 113.236 C 287.450 113.538,205.947 113.652,205.761 113.352 C 205.711 113.270,205.935 112.426,206.260 111.477 C 206.585 110.527,207.066 109.075,207.329 108.250 C 208.300 105.199,210.017 100.075,210.152 99.828 C 210.228 99.687,210.348 99.315,210.417 99.000 C 210.486 98.685,210.600 98.313,210.671 98.172 C 210.742 98.032,210.999 97.279,211.242 96.500 C 211.485 95.721,211.747 94.933,211.825 94.750 C 211.902 94.567,212.166 93.779,212.411 93.000 C 212.656 92.221,212.922 91.433,213.001 91.250 C 213.081 91.067,213.194 90.729,213.253 90.500 C 213.526 89.432,214.580 86.228,214.719 86.042 C 214.984 85.686,287.429 85.741,287.566 86.097 M168.869 137.924 C 168.949 138.004,168.535 139.435,168.004 140.917 C 167.906 141.192,167.297 143.029,166.652 145.000 C 166.008 146.971,165.416 148.733,165.338 148.917 C 165.259 149.100,164.997 149.887,164.755 150.667 C 164.514 151.446,164.251 152.233,164.171 152.417 C 164.092 152.600,163.820 153.462,163.568 154.333 C 163.315 155.204,163.056 155.992,162.993 156.083 C 162.930 156.175,162.678 156.925,162.432 157.750 C 162.187 158.575,161.926 159.362,161.852 159.500 C 161.779 159.637,161.552 160.313,161.348 161.000 C 160.855 162.664,160.342 164.183,160.153 164.539 C 160.069 164.699,160.000 164.942,160.000 165.081 C 160.000 165.305,157.871 165.333,141.167 165.333 L 122.333 165.333 122.333 151.583 L 122.333 137.833 145.556 137.833 C 158.328 137.833,168.819 137.874,168.869 137.924 M287.584 138.208 C 287.634 138.415,287.654 144.583,287.629 151.917 L 287.583 165.250 238.042 165.292 C 210.794 165.315,188.500 165.278,188.499 165.209 C 188.499 165.140,188.717 164.446,188.984 163.667 C 189.251 162.887,190.005 160.600,190.659 158.583 C 191.314 156.567,191.914 154.767,191.994 154.583 C 192.073 154.400,192.336 153.612,192.578 152.833 C 192.820 152.054,193.082 151.267,193.160 151.083 C 193.238 150.900,193.874 148.987,194.574 146.833 C 195.273 144.679,195.914 142.767,195.997 142.583 C 196.080 142.400,196.342 141.575,196.581 140.750 C 196.819 139.925,197.081 139.100,197.163 138.917 C 197.245 138.733,197.360 138.415,197.417 138.208 L 197.522 137.833 242.508 137.833 L 287.494 137.833 287.584 138.208 M151.667 190.049 C 151.667 190.218,150.708 193.165,149.460 196.833 C 149.413 196.971,148.911 198.508,148.343 200.250 C 147.776 201.992,147.248 203.567,147.169 203.750 C 147.090 203.933,146.716 205.096,146.337 206.333 C 145.958 207.571,145.578 208.733,145.493 208.917 C 145.409 209.100,145.147 209.887,144.911 210.667 C 144.676 211.446,144.413 212.233,144.326 212.417 C 144.179 212.727,143.357 215.284,142.945 216.708 L 142.764 217.333 132.549 217.333 L 122.333 217.333 122.333 203.583 L 122.333 189.833 137.000 189.833 C 148.904 189.833,151.667 189.874,151.667 190.049 M287.629 203.250 C 287.654 210.583,287.634 216.752,287.584 216.958 L 287.494 217.333 229.413 217.333 C 190.959 217.333,171.333 217.277,171.333 217.167 C 171.333 217.076,171.477 216.570,171.652 216.042 C 171.827 215.515,172.243 214.221,172.577 213.167 C 172.910 212.112,173.246 211.100,173.322 210.917 C 173.398 210.733,173.661 209.946,173.906 209.167 C 174.151 208.387,174.416 207.600,174.497 207.417 C 174.577 207.233,174.841 206.446,175.083 205.667 C 175.326 204.887,175.586 204.100,175.662 203.917 C 175.738 203.733,176.112 202.608,176.493 201.417 C 176.874 200.225,177.249 199.100,177.326 198.917 C 177.403 198.733,178.003 196.933,178.658 194.917 C 179.313 192.900,179.968 190.931,180.114 190.541 L 180.379 189.833 233.981 189.875 L 287.583 189.917 287.629 203.250 M249.333 290.500 L 249.333 309.000 255.754 309.000 L 262.174 309.000 262.129 312.292 L 262.083 315.583 252.292 315.626 L 242.500 315.669 242.500 296.754 L 242.500 277.838 237.542 277.794 L 232.583 277.750 232.538 274.875 L 232.492 272.000 240.913 272.000 L 249.333 272.000 249.333 290.500 M60.100 284.093 C 61.462 284.237,63.105 284.455,63.751 284.578 C 66.044 285.017,69.085 285.713,69.215 285.829 C 69.414 286.007,67.458 291.996,67.200 291.998 C 67.081 291.999,66.071 291.735,64.955 291.410 C 61.733 290.474,60.293 290.268,56.914 290.258 L 53.911 290.250 52.790 290.802 C 51.110 291.628,50.475 292.668,50.834 294.002 C 51.175 295.270,52.463 295.855,55.799 296.255 C 66.889 297.585,70.023 299.477,70.707 305.255 C 71.331 310.520,68.072 314.717,62.539 315.775 C 59.275 316.400,53.198 316.184,50.270 315.339 C 46.758 314.326,45.569 313.937,44.595 313.481 C 43.488 312.963,43.381 312.861,43.648 312.575 C 43.729 312.488,44.298 311.329,44.913 310.000 C 46.266 307.076,46.132 307.224,47.022 307.678 C 50.847 309.631,59.210 310.792,62.032 309.761 C 63.695 309.153,64.835 307.104,64.341 305.607 C 63.918 304.324,62.686 303.909,56.833 303.079 C 50.757 302.217,49.399 301.784,47.013 299.947 C 43.369 297.142,43.158 290.613,46.600 287.220 C 49.467 284.395,53.681 283.419,60.100 284.093 M93.667 284.074 C 100.940 285.045,105.000 290.575,105.000 299.511 L 105.000 302.500 93.583 302.500 L 82.167 302.500 82.167 303.136 C 82.167 305.634,84.699 308.577,87.665 309.525 C 90.350 310.384,95.566 310.001,99.635 308.648 C 100.764 308.273,101.721 307.998,101.761 308.039 C 101.847 308.125,103.333 313.269,103.333 313.482 C 103.333 313.815,98.646 315.320,96.583 315.648 C 85.350 317.436,78.279 313.735,75.920 304.833 C 73.574 295.980,77.514 287.582,85.417 284.593 C 87.182 283.925,90.834 283.695,93.667 284.074 M191.167 284.074 C 198.343 285.032,202.236 290.195,202.453 299.042 L 202.538 302.500 191.022 302.500 L 179.506 302.500 179.612 303.292 C 180.428 309.417,187.783 311.686,197.049 308.671 C 199.544 307.860,199.284 307.856,199.501 308.708 C 199.600 309.098,199.940 310.284,200.257 311.345 C 200.975 313.748,200.996 313.564,199.958 313.972 C 192.286 316.984,183.816 316.743,178.900 313.372 C 173.942 309.972,171.487 301.759,173.427 295.064 C 175.795 286.891,182.262 282.884,191.167 284.074 M284.333 284.074 C 291.607 285.045,295.667 290.575,295.667 299.511 L 295.667 302.500 284.250 302.500 L 272.833 302.500 272.833 303.136 C 272.833 305.634,275.366 308.577,278.331 309.525 C 281.016 310.384,286.233 310.001,290.302 308.648 C 291.431 308.273,292.387 307.998,292.427 308.039 C 292.514 308.125,294.000 313.269,294.000 313.482 C 294.000 313.815,289.312 315.320,287.250 315.648 C 276.017 317.436,268.946 313.735,266.587 304.833 C 264.240 295.980,268.181 287.582,276.083 284.593 C 277.849 283.925,281.500 283.695,284.333 284.074 M316.603 284.093 C 317.967 284.236,319.796 284.495,320.667 284.668 C 323.647 285.261,325.750 285.786,325.743 285.934 C 325.734 286.139,324.905 288.775,324.295 290.542 C 324.018 291.344,323.707 291.999,323.604 291.998 C 323.501 291.997,322.380 291.697,321.114 291.332 C 312.931 288.973,306.094 290.329,307.328 294.067 C 307.781 295.440,308.856 295.846,313.583 296.432 C 323.824 297.701,327.223 300.187,327.232 306.417 C 327.242 313.662,320.544 317.329,309.872 315.922 C 306.463 315.472,300.000 313.471,300.000 312.866 C 300.000 312.607,302.657 307.333,302.785 307.339 C 302.857 307.342,303.064 307.455,303.243 307.591 C 303.679 307.920,307.880 309.241,309.939 309.696 C 312.204 310.197,317.121 310.245,318.456 309.779 C 320.579 309.039,321.663 306.135,320.287 304.877 C 319.418 304.083,318.257 303.772,313.917 303.169 C 306.945 302.201,305.425 301.701,303.078 299.603 C 299.710 296.593,299.768 290.264,303.193 287.094 C 306.214 284.297,310.147 283.417,316.603 284.093 M348.100 284.093 C 349.462 284.237,351.105 284.455,351.751 284.578 C 354.044 285.017,357.085 285.713,357.215 285.829 C 357.414 286.007,355.458 291.996,355.200 291.998 C 355.081 291.999,354.071 291.735,352.955 291.410 C 349.733 290.474,348.293 290.268,344.914 290.258 L 341.911 290.250 340.790 290.802 C 339.110 291.628,338.475 292.668,338.834 294.002 C 339.175 295.270,340.463 295.855,343.799 296.255 C 354.889 297.585,358.023 299.477,358.707 305.255 C 359.331 310.520,356.072 314.717,350.539 315.775 C 347.275 316.400,341.198 316.184,338.270 315.339 C 334.758 314.326,333.569 313.937,332.595 313.481 C 331.488 312.963,331.381 312.861,331.648 312.575 C 331.729 312.488,332.298 311.329,332.913 310.000 C 334.266 307.076,334.132 307.224,335.022 307.678 C 338.847 309.631,347.210 310.792,350.032 309.761 C 351.695 309.153,352.835 307.104,352.341 305.607 C 351.918 304.324,350.686 303.909,344.833 303.079 C 338.757 302.217,337.399 301.784,335.013 299.947 C 331.369 297.142,331.158 290.613,334.600 287.220 C 337.467 284.395,341.681 283.419,348.100 284.093 M118.228 284.708 C 118.284 284.915,118.336 285.683,118.346 286.417 C 118.355 287.150,118.412 288.125,118.473 288.583 L 118.583 289.417 118.787 288.745 C 119.190 287.419,121.036 285.643,122.876 284.812 C 123.742 284.420,123.803 284.417,129.583 284.417 L 135.417 284.417 135.462 287.697 L 135.507 290.977 129.545 291.030 L 123.583 291.083 122.583 291.550 C 121.381 292.111,120.134 293.281,119.528 294.417 L 119.083 295.250 119.036 305.458 L 118.988 315.667 115.494 315.667 L 112.000 315.667 112.000 300.000 L 112.000 284.333 115.064 284.333 C 118.100 284.333,118.129 284.337,118.228 284.708 M147.588 285.292 C 147.734 285.819,148.106 287.112,148.415 288.167 C 148.725 289.221,149.326 291.283,149.751 292.750 C 151.038 297.188,151.609 299.144,152.306 301.500 C 152.672 302.737,153.332 304.971,153.773 306.464 L 154.575 309.178 156.807 302.381 C 158.034 298.642,159.873 293.071,160.894 290.000 L 162.750 284.417 166.144 284.371 C 169.062 284.333,169.525 284.360,169.445 284.569 C 169.394 284.703,169.266 285.136,169.161 285.531 C 169.057 285.927,167.513 290.825,165.730 296.417 C 163.948 302.008,162.146 307.671,161.726 309.000 C 161.307 310.329,160.649 312.354,160.266 313.500 L 159.569 315.583 154.590 315.583 L 149.611 315.583 149.068 313.917 C 148.769 313.000,148.178 311.087,147.754 309.667 C 146.771 306.368,145.596 302.502,144.994 300.583 C 144.736 299.758,144.179 297.921,143.757 296.500 C 142.908 293.639,141.796 289.999,140.812 286.854 C 140.457 285.719,140.167 284.688,140.167 284.562 C 140.167 284.375,140.823 284.333,143.745 284.333 L 147.324 284.333 147.588 285.292 M215.725 285.208 C 215.783 285.690,215.831 286.727,215.832 287.514 C 215.834 289.258,215.925 289.382,216.442 288.345 C 217.312 286.599,219.509 284.910,221.446 284.497 C 221.929 284.395,224.382 284.344,227.583 284.371 L 232.917 284.417 232.962 287.697 L 233.007 290.977 227.045 291.030 L 221.083 291.083 220.048 291.562 C 219.371 291.874,218.698 292.370,218.103 292.994 C 216.480 294.695,216.590 293.823,216.536 305.458 L 216.488 315.667 212.994 315.667 L 209.500 315.667 209.500 300.000 L 209.500 284.333 212.560 284.333 L 215.620 284.333 215.725 285.208 M88.500 290.353 C 85.487 290.838,82.293 294.002,82.169 296.625 C 82.168 296.648,85.889 296.667,90.439 296.667 L 98.712 296.667 98.611 295.931 C 98.022 291.634,94.074 289.456,88.500 290.353 M186.000 290.341 C 183.140 290.834,180.212 293.510,179.763 296.042 L 179.652 296.667 187.932 296.667 L 196.212 296.667 196.109 295.912 C 195.532 291.705,191.375 289.414,186.000 290.341 M279.167 290.353 C 276.153 290.838,272.960 294.002,272.835 296.625 C 272.834 296.648,276.556 296.667,281.106 296.667 L 289.379 296.667 289.278 295.931 C 288.689 291.634,284.740 289.456,279.167 290.353 " stroke="none" fill="#242424" fill-rule="evenodd"></path><path id="path3" d="M122.374 99.625 L 122.417 113.417 149.688 113.459 C 171.380 113.492,176.992 113.458,177.123 113.292 C 177.213 113.177,177.331 112.858,177.384 112.583 C 177.469 112.144,177.449 112.160,177.218 112.708 L 176.955 113.333 149.727 113.333 L 122.500 113.333 122.500 99.667 L 122.500 86.000 154.139 86.000 C 171.540 86.000,185.822 86.044,185.876 86.098 C 185.930 86.153,185.867 86.502,185.736 86.874 C 185.604 87.247,185.533 87.589,185.578 87.633 C 185.622 87.678,185.691 87.610,185.731 87.482 C 185.771 87.354,185.885 86.998,185.983 86.689 C 186.082 86.381,186.122 86.062,186.072 85.981 C 186.019 85.896,172.439 85.833,154.156 85.833 L 122.331 85.833 122.374 99.625 M214.700 86.033 C 214.590 86.143,214.505 86.350,214.511 86.492 C 214.519 86.662,214.584 86.622,214.704 86.375 L 214.885 85.999 251.151 86.041 L 287.417 86.083 287.417 99.667 L 287.417 113.250 246.677 113.292 C 214.201 113.325,205.907 113.292,205.789 113.125 C 205.679 112.971,205.659 112.981,205.710 113.167 C 205.803 113.511,287.311 113.636,287.529 113.292 C 287.682 113.051,287.718 86.494,287.566 86.097 C 287.432 85.749,215.048 85.686,214.700 86.033 M213.920 88.289 C 213.664 89.093,213.417 89.862,213.370 90.000 C 213.315 90.162,213.340 90.191,213.442 90.083 C 213.639 89.875,214.555 87.000,214.457 86.901 C 214.417 86.861,214.175 87.486,213.920 88.289 M185.100 88.684 C 185.059 88.812,184.863 89.428,184.663 90.052 C 184.463 90.677,184.334 91.223,184.378 91.266 C 184.421 91.310,184.650 90.726,184.886 89.970 C 185.123 89.213,185.285 88.562,185.246 88.523 C 185.206 88.484,185.141 88.557,185.100 88.684 M212.935 91.351 C 212.895 91.479,212.665 92.174,212.424 92.896 C 212.183 93.618,212.019 94.241,212.058 94.281 C 212.098 94.320,212.363 93.660,212.647 92.813 C 212.931 91.967,213.128 91.239,213.085 91.196 C 213.043 91.154,212.975 91.223,212.935 91.351 M183.187 94.520 C 182.903 95.367,182.705 96.094,182.748 96.137 C 182.791 96.179,182.860 96.110,182.901 95.982 C 182.943 95.854,183.175 95.161,183.416 94.441 C 183.657 93.721,183.820 93.098,183.779 93.057 C 183.737 93.015,183.471 93.673,183.187 94.520 M211.095 96.845 C 210.756 97.987,210.881 98.111,211.250 97.000 C 211.406 96.530,211.494 96.105,211.445 96.056 C 211.396 96.007,211.239 96.362,211.095 96.845 M182.000 98.083 C 181.706 98.966,181.500 99.722,181.542 99.764 C 181.584 99.806,181.851 99.111,182.135 98.218 C 182.418 97.325,182.624 96.569,182.593 96.537 C 182.561 96.505,182.294 97.201,182.000 98.083 M210.105 99.851 C 210.067 99.979,209.872 100.558,209.671 101.139 C 209.470 101.719,209.347 102.236,209.399 102.288 C 209.450 102.339,209.525 102.277,209.565 102.149 C 209.606 102.021,209.794 101.435,209.985 100.846 C 210.175 100.257,210.296 99.740,210.253 99.697 C 210.210 99.654,210.143 99.723,210.105 99.851 M181.167 100.583 C 181.057 100.916,181.004 101.227,181.050 101.272 C 181.096 101.318,181.223 101.083,181.333 100.750 C 181.443 100.417,181.496 100.107,181.450 100.061 C 181.404 100.015,181.277 100.250,181.167 100.583 M180.583 102.333 C 180.427 102.804,180.339 103.228,180.388 103.277 C 180.437 103.326,180.595 102.971,180.738 102.488 C 181.077 101.347,180.952 101.222,180.583 102.333 M208.606 104.356 C 208.360 105.103,208.196 105.752,208.242 105.798 C 208.288 105.843,208.359 105.777,208.400 105.649 C 208.441 105.521,208.637 104.906,208.837 104.281 C 209.037 103.656,209.168 103.112,209.127 103.072 C 209.087 103.031,208.852 103.609,208.606 104.356 M179.955 104.267 C 179.888 104.334,179.833 104.504,179.833 104.644 C 179.833 104.832,179.883 104.851,180.019 104.715 C 180.121 104.613,180.175 104.443,180.140 104.337 C 180.105 104.232,180.022 104.201,179.955 104.267 M179.350 106.100 C 179.124 106.920,179.240 107.037,179.500 106.250 C 179.610 105.917,179.660 105.605,179.612 105.557 C 179.564 105.508,179.446 105.753,179.350 106.100 M207.867 106.553 C 207.629 107.211,207.611 107.459,207.816 107.242 C 207.970 107.078,208.242 106.000,208.130 106.000 C 208.095 106.000,207.977 106.249,207.867 106.553 M178.935 107.401 C 178.880 107.622,178.786 107.941,178.726 108.110 C 178.652 108.320,178.672 108.364,178.791 108.250 C 178.973 108.076,179.251 107.000,179.115 107.000 C 179.071 107.000,178.991 107.181,178.935 107.401 M207.267 108.433 C 207.106 108.944,207.010 109.399,207.055 109.444 C 207.099 109.488,207.260 109.099,207.411 108.578 C 207.769 107.345,207.648 107.224,207.267 108.433 M178.020 110.187 C 177.736 111.033,177.539 111.761,177.581 111.804 C 177.624 111.846,177.692 111.777,177.732 111.649 C 177.772 111.521,178.002 110.826,178.243 110.104 C 178.483 109.382,178.648 108.759,178.608 108.719 C 178.569 108.680,178.304 109.340,178.020 110.187 M206.683 110.192 C 206.462 110.825,206.453 110.951,206.645 110.742 C 206.805 110.568,207.049 109.667,206.936 109.667 C 206.898 109.667,206.784 109.903,206.683 110.192 M206.107 111.857 C 205.772 113.000,205.881 113.110,206.250 112.000 C 206.406 111.530,206.496 111.107,206.450 111.061 C 206.403 111.014,206.249 111.373,206.107 111.857 M122.374 151.625 L 122.415 165.417 122.458 151.708 L 122.502 138.000 145.605 138.000 L 168.708 138.000 168.608 138.458 C 168.553 138.710,168.468 139.104,168.419 139.333 C 168.369 139.563,168.470 139.375,168.642 138.917 C 168.815 138.458,168.924 138.027,168.885 137.958 C 168.846 137.890,158.356 137.833,145.573 137.833 L 122.333 137.833 122.374 151.625 M197.434 138.097 C 197.379 138.242,197.339 138.448,197.345 138.555 C 197.351 138.662,197.415 138.600,197.487 138.417 C 197.616 138.085,197.810 138.083,242.600 138.000 L 287.583 137.916 242.559 137.875 C 201.633 137.837,197.526 137.857,197.434 138.097 M287.500 151.700 C 287.454 159.189,287.473 165.260,287.543 165.191 C 287.612 165.121,287.649 158.994,287.626 151.574 L 287.583 138.083 287.500 151.700 M197.096 139.018 C 196.741 140.071,196.187 142.075,196.237 142.126 C 196.272 142.160,196.528 141.455,196.808 140.558 C 197.087 139.661,197.284 138.895,197.245 138.856 C 197.206 138.817,197.139 138.890,197.096 139.018 M168.137 139.925 C 168.087 140.012,167.998 140.308,167.939 140.583 L 167.832 141.083 168.093 140.615 C 168.237 140.357,168.326 140.061,168.291 139.957 C 168.254 139.847,168.189 139.833,168.137 139.925 M167.605 141.518 C 167.567 141.646,167.373 142.222,167.173 142.799 C 166.974 143.376,166.838 143.930,166.871 144.030 C 166.905 144.131,167.137 143.592,167.387 142.833 C 167.637 142.074,167.804 141.415,167.758 141.369 C 167.712 141.323,167.643 141.390,167.605 141.518 M195.956 142.614 C 195.914 142.689,195.835 142.975,195.780 143.250 C 195.681 143.747,195.682 143.747,195.932 143.189 C 196.150 142.702,196.170 142.237,195.956 142.614 M195.262 144.679 C 194.923 145.820,195.048 145.945,195.417 144.833 C 195.573 144.363,195.661 143.938,195.612 143.889 C 195.563 143.840,195.405 144.196,195.262 144.679 M166.455 144.934 C 166.388 145.001,166.336 145.212,166.338 145.403 C 166.343 145.723,166.357 145.727,166.517 145.452 C 166.703 145.132,166.656 144.733,166.455 144.934 M165.917 146.667 C 165.760 147.137,165.671 147.560,165.717 147.606 C 165.763 147.652,165.918 147.294,166.060 146.810 C 166.395 145.666,166.285 145.557,165.917 146.667 M194.683 146.433 C 194.457 147.253,194.574 147.370,194.833 146.583 C 194.943 146.250,194.994 145.938,194.945 145.890 C 194.897 145.842,194.779 146.086,194.683 146.433 M193.859 148.942 C 193.570 149.830,193.363 150.586,193.400 150.622 C 193.436 150.658,193.706 149.966,194.000 149.083 C 194.294 148.201,194.501 147.445,194.459 147.404 C 194.418 147.362,194.148 148.055,193.859 148.942 M164.750 150.167 C 164.594 150.637,164.504 151.060,164.550 151.106 C 164.597 151.152,164.751 150.794,164.893 150.310 C 165.228 149.166,165.119 149.057,164.750 150.167 M164.183 151.858 C 163.962 152.492,163.953 152.617,164.145 152.408 C 164.305 152.234,164.549 151.333,164.436 151.333 C 164.398 151.333,164.284 151.570,164.183 151.858 M192.528 152.944 C 192.332 153.558,192.200 154.089,192.235 154.124 C 192.270 154.159,192.464 153.691,192.667 153.083 C 192.869 152.476,193.000 151.945,192.959 151.904 C 192.918 151.862,192.724 152.331,192.528 152.944 M163.359 154.442 C 163.080 155.339,162.883 156.105,162.922 156.144 C 163.002 156.224,162.999 156.233,163.578 154.352 C 163.815 153.583,163.977 152.922,163.938 152.882 C 163.899 152.843,163.638 153.545,163.359 154.442 M191.106 157.189 C 190.860 157.936,190.696 158.585,190.742 158.631 C 190.788 158.677,190.859 158.610,190.900 158.482 C 190.941 158.354,191.137 157.739,191.337 157.114 C 191.537 156.490,191.668 155.946,191.627 155.905 C 191.587 155.864,191.352 156.442,191.106 157.189 M162.015 158.516 C 161.902 158.893,161.766 159.325,161.714 159.476 C 161.650 159.656,161.673 159.693,161.781 159.583 C 161.970 159.390,162.389 158.000,162.288 157.899 C 162.251 157.862,162.128 158.139,162.015 158.516 M190.350 159.433 C 190.232 159.759,190.173 160.062,190.218 160.107 C 190.263 160.152,190.390 159.916,190.500 159.583 C 190.760 158.794,190.629 158.662,190.350 159.433 M189.848 161.016 C 189.735 161.393,189.600 161.825,189.547 161.976 C 189.484 162.156,189.507 162.193,189.614 162.083 C 189.804 161.890,190.222 160.500,190.122 160.399 C 190.084 160.362,189.961 160.639,189.848 161.016 M160.684 162.518 C 160.476 163.165,160.339 163.728,160.380 163.769 C 160.421 163.810,160.625 163.314,160.833 162.667 C 161.041 162.019,161.178 161.456,161.137 161.415 C 161.097 161.374,160.893 161.870,160.684 162.518 M188.686 164.516 C 188.584 164.810,188.505 165.132,188.512 165.233 C 188.518 165.334,188.631 165.123,188.762 164.765 C 188.894 164.406,188.972 164.083,188.937 164.048 C 188.901 164.012,188.788 164.223,188.686 164.516 M122.374 203.625 L 122.415 217.417 122.458 203.708 L 122.502 190.000 136.989 190.000 C 150.646 190.000,151.480 190.017,151.552 190.292 C 151.609 190.511,151.633 190.491,151.647 190.208 L 151.667 189.833 137.000 189.833 L 122.333 189.833 122.374 203.625 M233.874 189.958 L 287.498 190.001 287.542 203.542 L 287.586 217.083 287.585 203.500 L 287.583 189.917 233.917 189.916 L 180.250 189.916 233.874 189.958 M180.017 190.767 C 179.899 191.092,179.840 191.395,179.885 191.440 C 179.930 191.485,180.057 191.250,180.167 190.917 C 180.427 190.127,180.295 189.996,180.017 190.767 M151.083 191.500 C 150.927 191.970,150.837 192.393,150.884 192.439 C 150.930 192.486,151.084 192.127,151.226 191.643 C 151.561 190.500,151.452 190.390,151.083 191.500 M179.429 192.512 C 179.285 192.995,179.197 193.420,179.234 193.456 C 179.270 193.492,179.427 193.137,179.583 192.667 C 179.740 192.196,179.827 191.772,179.778 191.723 C 179.729 191.674,179.572 192.029,179.429 192.512 M150.620 192.781 C 150.575 192.855,150.493 193.179,150.437 193.500 L 150.334 194.083 150.584 193.431 C 150.807 192.851,150.830 192.424,150.620 192.781 M178.850 194.267 C 178.754 194.614,178.704 194.926,178.738 194.960 C 178.772 194.994,178.890 194.750,179.000 194.417 C 179.110 194.084,179.160 193.771,179.112 193.723 C 179.064 193.675,178.946 193.919,178.850 194.267 M150.102 194.351 C 150.062 194.479,149.948 194.838,149.848 195.150 C 149.540 196.112,149.672 196.136,150.012 195.180 C 150.188 194.683,150.297 194.241,150.253 194.198 C 150.210 194.154,150.142 194.223,150.102 194.351 M178.019 196.769 C 177.738 197.664,177.542 198.431,177.583 198.472 C 177.669 198.558,177.663 198.574,178.245 196.685 C 178.482 195.916,178.643 195.254,178.603 195.214 C 178.563 195.174,178.301 195.874,178.019 196.769 M149.455 196.267 C 149.388 196.334,149.333 196.504,149.333 196.644 C 149.333 196.832,149.383 196.851,149.519 196.715 C 149.621 196.613,149.675 196.443,149.640 196.338 C 149.605 196.232,149.522 196.201,149.455 196.267 M148.779 198.408 C 148.397 199.528,148.443 199.767,148.849 198.769 C 149.030 198.321,149.152 197.872,149.118 197.772 C 149.085 197.672,148.932 197.958,148.779 198.408 M177.290 198.947 C 177.247 199.022,177.168 199.308,177.113 199.583 C 177.014 200.081,177.015 200.080,177.265 199.522 C 177.483 199.036,177.503 198.570,177.290 198.947 M148.250 200.000 C 148.187 200.197,148.174 200.396,148.220 200.442 C 148.265 200.488,148.354 200.364,148.417 200.167 C 148.479 199.970,148.493 199.771,148.447 199.725 C 148.401 199.679,148.313 199.803,148.250 200.000 M176.607 201.024 C 176.272 202.167,176.381 202.276,176.750 201.167 C 176.906 200.696,176.996 200.274,176.950 200.227 C 176.903 200.181,176.749 200.539,176.607 201.024 M147.437 202.437 C 147.198 203.145,147.038 203.760,147.081 203.803 C 147.124 203.846,147.190 203.777,147.228 203.649 C 147.266 203.521,147.462 202.942,147.663 202.361 C 147.864 201.781,147.992 201.270,147.949 201.227 C 147.905 201.183,147.675 201.728,147.437 202.437 M176.017 202.767 C 175.921 203.114,175.870 203.426,175.905 203.460 C 175.939 203.494,176.057 203.250,176.167 202.917 C 176.277 202.584,176.327 202.271,176.279 202.223 C 176.230 202.175,176.113 202.419,176.017 202.767 M175.601 204.018 C 175.561 204.146,175.335 204.844,175.099 205.571 C 174.863 206.298,174.698 206.921,174.733 206.956 C 174.768 206.991,175.029 206.327,175.313 205.480 C 175.597 204.633,175.795 203.906,175.752 203.863 C 175.709 203.821,175.641 203.890,175.601 204.018 M145.922 207.089 C 145.564 208.321,145.685 208.443,146.067 207.233 C 146.228 206.722,146.323 206.268,146.279 206.223 C 146.234 206.178,146.074 206.568,145.922 207.089 M174.432 207.518 C 174.390 207.646,174.164 208.325,173.928 209.028 C 173.693 209.731,173.504 210.406,173.510 210.528 C 173.515 210.650,173.782 210.010,174.102 209.106 C 174.422 208.202,174.644 207.422,174.596 207.374 C 174.547 207.325,174.474 207.390,174.432 207.518 M145.455 208.434 C 145.388 208.501,145.333 208.671,145.333 208.811 C 145.333 208.999,145.383 209.017,145.519 208.881 C 145.621 208.779,145.675 208.610,145.640 208.504 C 145.605 208.399,145.522 208.367,145.455 208.434 M144.935 210.018 C 144.894 210.146,144.706 210.732,144.515 211.321 C 144.325 211.909,144.204 212.426,144.247 212.469 C 144.290 212.512,144.358 212.443,144.399 212.316 C 144.439 212.188,144.628 211.602,144.818 211.013 C 145.009 210.424,145.129 209.907,145.086 209.864 C 145.043 209.821,144.975 209.890,144.935 210.018 M173.288 210.934 C 173.221 211.001,173.167 211.171,173.167 211.311 C 173.167 211.499,173.216 211.517,173.352 211.381 C 173.454 211.279,173.509 211.110,173.474 211.004 C 173.438 210.899,173.355 210.867,173.288 210.934 M172.586 213.122 C 172.331 213.926,172.084 214.696,172.036 214.833 C 171.981 214.995,172.007 215.024,172.108 214.917 C 172.305 214.708,173.222 211.833,173.123 211.734 C 173.083 211.694,172.842 212.319,172.586 213.122 M143.767 213.518 C 143.726 213.646,143.529 214.261,143.329 214.886 C 143.129 215.510,143.001 216.057,143.044 216.100 C 143.087 216.143,143.316 215.559,143.553 214.803 C 143.790 214.047,143.951 213.396,143.912 213.357 C 143.873 213.318,143.808 213.390,143.767 213.518 M171.500 216.500 C 171.254 217.412,171.385 217.542,171.652 216.652 C 171.764 216.275,171.819 215.930,171.773 215.884 C 171.726 215.837,171.604 216.115,171.500 216.500 M232.569 274.833 C 232.569 276.438,232.594 277.094,232.624 276.292 C 232.655 275.490,232.655 274.177,232.624 273.375 C 232.594 272.573,232.569 273.229,232.569 274.833 M113.550 284.458 C 114.449 284.488,115.874 284.488,116.717 284.457 C 117.560 284.427,116.825 284.403,115.083 284.403 C 113.342 284.403,112.652 284.428,113.550 284.458 M127.042 284.458 C 128.577 284.486,131.090 284.486,132.625 284.458 C 134.160 284.431,132.904 284.408,129.833 284.408 C 126.763 284.408,125.506 284.431,127.042 284.458 M141.866 284.458 C 142.846 284.487,144.496 284.487,145.532 284.458 C 146.569 284.429,145.767 284.404,143.750 284.404 C 141.733 284.404,140.885 284.428,141.866 284.458 M164.458 284.458 C 165.398 284.487,166.935 284.487,167.875 284.458 C 168.815 284.428,168.046 284.404,166.167 284.404 C 164.287 284.404,163.519 284.428,164.458 284.458 M211.050 284.458 C 211.949 284.488,213.374 284.488,214.217 284.457 C 215.060 284.427,214.325 284.403,212.583 284.403 C 210.842 284.403,210.152 284.428,211.050 284.458 M227.288 284.457 L 232.826 284.504 232.877 287.711 L 232.927 290.917 232.922 287.667 L 232.917 284.417 227.333 284.413 L 221.750 284.410 227.288 284.457 M118.214 285.583 C 118.216 286.042,118.248 286.209,118.286 285.956 C 118.325 285.703,118.324 285.328,118.284 285.123 C 118.244 284.918,118.213 285.125,118.214 285.583 M215.712 286.167 C 215.712 286.579,215.745 286.748,215.784 286.542 C 215.824 286.335,215.824 285.998,215.784 285.792 C 215.745 285.585,215.712 285.754,215.712 286.167 M100.167 286.885 C 100.167 286.914,100.410 287.158,100.708 287.427 L 101.250 287.917 100.760 287.375 C 100.304 286.870,100.167 286.757,100.167 286.885 M290.833 286.885 C 290.833 286.914,291.077 287.158,291.375 287.427 L 291.917 287.917 291.427 287.375 C 290.971 286.870,290.833 286.757,290.833 286.885 M177.409 287.875 L 176.750 288.583 177.458 287.925 C 178.117 287.312,178.243 287.167,178.117 287.167 C 178.090 287.167,177.771 287.485,177.409 287.875 M118.375 288.583 C 118.377 288.950,118.411 289.080,118.451 288.873 C 118.491 288.666,118.490 288.366,118.448 288.206 C 118.406 288.047,118.374 288.217,118.375 288.583 M55.796 290.122 C 56.188 290.157,56.788 290.157,57.129 290.121 C 57.471 290.085,57.150 290.057,56.417 290.057 C 55.683 290.058,55.404 290.087,55.796 290.122 M312.125 290.122 C 312.515 290.157,313.152 290.157,313.542 290.122 C 313.931 290.087,313.612 290.058,312.833 290.058 C 312.054 290.058,311.735 290.087,312.125 290.122 M343.796 290.122 C 344.188 290.157,344.788 290.157,345.129 290.121 C 345.471 290.085,345.150 290.057,344.417 290.057 C 343.683 290.058,343.404 290.087,343.796 290.122 M315.542 290.282 C 315.702 290.323,315.965 290.323,316.125 290.282 C 316.285 290.240,316.154 290.205,315.833 290.205 C 315.512 290.205,315.381 290.240,315.542 290.282 M44.209 292.583 C 44.211 292.950,44.245 293.080,44.285 292.873 C 44.324 292.666,44.323 292.366,44.281 292.206 C 44.239 292.047,44.207 292.217,44.209 292.583 M332.209 292.583 C 332.211 292.950,332.245 293.080,332.285 292.873 C 332.324 292.666,332.323 292.366,332.281 292.206 C 332.239 292.047,332.207 292.217,332.209 292.583 M217.991 292.958 L 217.417 293.583 218.042 293.009 C 218.385 292.693,218.667 292.412,218.667 292.384 C 218.667 292.257,218.526 292.377,217.991 292.958 M44.205 294.167 C 44.205 294.487,44.240 294.619,44.282 294.458 C 44.323 294.298,44.323 294.035,44.282 293.875 C 44.240 293.715,44.205 293.846,44.205 294.167 M332.205 294.167 C 332.205 294.487,332.240 294.619,332.282 294.458 C 332.323 294.298,332.323 294.035,332.282 293.875 C 332.240 293.715,332.205 293.846,332.205 294.167 M86.303 296.792 C 88.624 296.818,92.374 296.818,94.637 296.792 C 96.899 296.765,95.000 296.744,90.417 296.744 C 85.833 296.744,83.982 296.765,86.303 296.792 M183.803 296.792 C 186.124 296.818,189.874 296.818,192.137 296.792 C 194.399 296.765,192.500 296.744,187.917 296.744 C 183.333 296.744,181.482 296.765,183.803 296.792 M276.970 296.792 C 279.291 296.818,283.041 296.818,285.303 296.792 C 287.566 296.765,285.667 296.744,281.083 296.744 C 276.500 296.744,274.649 296.765,276.970 296.792 M172.717 299.833 C 172.717 300.337,172.748 300.544,172.786 300.292 C 172.824 300.040,172.824 299.627,172.786 299.375 C 172.748 299.123,172.717 299.329,172.717 299.833 M75.209 299.917 C 75.211 300.283,75.245 300.414,75.285 300.206 C 75.324 299.999,75.323 299.699,75.281 299.540 C 75.239 299.380,75.207 299.550,75.209 299.917 M265.875 299.917 C 265.877 300.283,265.911 300.414,265.951 300.206 C 265.991 299.999,265.990 299.699,265.948 299.540 C 265.906 299.380,265.874 299.550,265.875 299.917 M82.025 302.875 C 82.048 303.377,82.055 303.384,82.119 302.959 L 82.189 302.502 93.636 302.458 L 105.083 302.414 93.542 302.374 L 82.000 302.333 82.025 302.875 M185.208 302.458 C 188.394 302.484,193.606 302.484,196.792 302.458 C 199.977 302.433,197.371 302.412,191.000 302.412 C 184.629 302.412,182.023 302.433,185.208 302.458 M272.692 302.875 C 272.715 303.377,272.722 303.384,272.786 302.959 L 272.855 302.502 284.303 302.458 L 295.750 302.414 284.208 302.374 L 272.667 302.333 272.692 302.875 M327.217 306.500 C 327.217 307.004,327.248 307.210,327.286 306.958 C 327.324 306.706,327.324 306.294,327.286 306.042 C 327.248 305.790,327.217 305.996,327.217 306.500 M57.796 310.289 C 58.188 310.324,58.788 310.324,59.129 310.288 C 59.471 310.252,59.150 310.223,58.417 310.224 C 57.683 310.224,57.404 310.254,57.796 310.289 M314.296 310.289 C 314.688 310.324,315.288 310.324,315.629 310.288 C 315.971 310.252,315.650 310.223,314.917 310.224 C 314.183 310.224,313.904 310.254,314.296 310.289 M345.796 310.289 C 346.188 310.324,346.788 310.324,347.129 310.288 C 347.471 310.252,347.150 310.223,346.417 310.224 C 345.683 310.224,345.404 310.254,345.796 310.289 M113.708 315.624 C 114.694 315.654,116.306 315.654,117.292 315.624 C 118.277 315.595,117.471 315.571,115.500 315.571 C 113.529 315.571,112.723 315.595,113.708 315.624 M152.135 315.625 C 153.539 315.653,155.789 315.653,157.135 315.625 C 158.482 315.597,157.333 315.574,154.583 315.574 C 151.833 315.574,150.732 315.597,152.135 315.625 M211.208 315.624 C 212.194 315.654,213.806 315.654,214.792 315.624 C 215.777 315.595,214.971 315.571,213.000 315.571 C 211.029 315.571,210.223 315.595,211.208 315.624 M247.387 315.625 C 250.121 315.651,254.546 315.651,257.220 315.625 C 259.895 315.599,257.658 315.578,252.250 315.578 C 246.842 315.578,244.653 315.599,247.387 315.625 M90.958 316.118 C 91.165 316.157,91.502 316.157,91.708 316.118 C 91.915 316.078,91.746 316.045,91.333 316.045 C 90.921 316.045,90.752 316.078,90.958 316.118 M188.458 316.118 C 188.665 316.157,189.002 316.157,189.208 316.118 C 189.415 316.078,189.246 316.045,188.833 316.045 C 188.421 316.045,188.252 316.078,188.458 316.118 M281.625 316.118 C 281.831 316.157,282.169 316.157,282.375 316.118 C 282.581 316.078,282.412 316.045,282.000 316.045 C 281.587 316.045,281.419 316.078,281.625 316.118 " stroke="none" fill="#694b4a" fill-rule="evenodd"></path><path id="path4" d="M249.247 290.500 C 249.247 300.721,249.267 304.902,249.292 299.792 C 249.316 294.681,249.316 286.319,249.292 281.208 C 249.267 276.098,249.247 280.279,249.247 290.500 M237.541 277.790 L 242.499 277.838 242.542 296.627 L 242.585 315.417 242.584 296.583 L 242.583 277.750 237.583 277.746 L 232.583 277.742 237.541 277.790 M55.713 283.956 C 56.152 283.990,56.827 283.990,57.213 283.955 C 57.600 283.920,57.242 283.892,56.417 283.892 C 55.592 283.893,55.275 283.922,55.713 283.956 M90.129 283.956 C 90.521 283.991,91.121 283.990,91.463 283.954 C 91.804 283.919,91.483 283.890,90.750 283.890 C 90.017 283.891,89.737 283.920,90.129 283.956 M187.629 283.956 C 188.021 283.991,188.621 283.990,188.963 283.954 C 189.304 283.919,188.983 283.890,188.250 283.890 C 187.517 283.891,187.237 283.920,187.629 283.956 M280.796 283.956 C 281.188 283.991,281.788 283.990,282.129 283.954 C 282.471 283.919,282.150 283.890,281.417 283.890 C 280.683 283.891,280.404 283.920,280.796 283.956 M312.047 283.956 C 312.485 283.990,313.160 283.990,313.547 283.955 C 313.934 283.920,313.575 283.892,312.750 283.892 C 311.925 283.893,311.609 283.922,312.047 283.956 M343.713 283.956 C 344.152 283.990,344.827 283.990,345.213 283.955 C 345.600 283.920,345.242 283.892,344.417 283.892 C 343.592 283.893,343.275 283.922,343.713 283.956 M135.403 287.667 C 135.403 289.454,135.428 290.185,135.458 289.292 C 135.488 288.398,135.488 286.935,135.458 286.042 C 135.428 285.148,135.403 285.879,135.403 287.667 M120.244 286.708 L 119.417 287.583 120.292 286.756 C 121.105 285.988,121.243 285.833,121.119 285.833 C 121.092 285.833,120.699 286.227,120.244 286.708 M217.744 286.708 L 216.917 287.583 217.792 286.756 C 218.273 286.301,218.667 285.908,218.667 285.881 C 218.667 285.757,218.512 285.895,217.744 286.708 M118.214 287.083 C 118.216 287.542,118.248 287.709,118.286 287.456 C 118.325 287.203,118.324 286.828,118.284 286.623 C 118.244 286.418,118.213 286.625,118.214 287.083 M302.909 287.375 L 302.250 288.083 302.958 287.425 C 303.617 286.812,303.743 286.667,303.617 286.667 C 303.590 286.667,303.271 286.985,302.909 287.375 M215.705 287.333 C 215.705 287.654,215.740 287.785,215.782 287.625 C 215.823 287.465,215.823 287.202,215.782 287.042 C 215.740 286.881,215.705 287.012,215.705 287.333 M198.326 287.708 C 199.017 288.444,199.167 288.577,199.167 288.451 C 199.167 288.425,198.810 288.068,198.375 287.660 L 197.583 286.917 198.326 287.708 M118.336 289.625 C 118.334 289.923,118.362 290.167,118.397 290.167 C 118.549 290.167,118.613 289.517,118.482 289.310 C 118.384 289.156,118.338 289.257,118.336 289.625 M215.944 289.444 C 215.883 289.506,215.838 289.712,215.844 289.903 C 215.854 290.222,215.867 290.218,216.014 289.851 C 216.177 289.443,216.144 289.245,215.944 289.444 M55.960 289.951 C 56.168 289.991,56.468 289.990,56.627 289.948 C 56.786 289.906,56.617 289.874,56.250 289.875 C 55.883 289.877,55.753 289.911,55.960 289.951 M312.292 289.951 C 312.498 289.991,312.835 289.991,313.042 289.951 C 313.248 289.911,313.079 289.879,312.667 289.879 C 312.254 289.879,312.085 289.911,312.292 289.951 M343.960 289.951 C 344.168 289.991,344.468 289.990,344.627 289.948 C 344.786 289.906,344.617 289.874,344.250 289.875 C 343.883 289.877,343.753 289.911,343.960 289.951 M58.044 290.120 C 58.297 290.158,58.672 290.157,58.877 290.117 C 59.082 290.078,58.875 290.046,58.417 290.048 C 57.958 290.049,57.791 290.081,58.044 290.120 M89.544 290.120 C 89.797 290.158,90.172 290.157,90.377 290.117 C 90.582 290.078,90.375 290.046,89.917 290.048 C 89.458 290.049,89.291 290.081,89.544 290.120 M91.458 290.118 C 91.665 290.157,92.002 290.157,92.208 290.118 C 92.415 290.078,92.246 290.045,91.833 290.045 C 91.421 290.045,91.252 290.078,91.458 290.118 M187.044 290.120 C 187.297 290.158,187.672 290.157,187.877 290.117 C 188.082 290.078,187.875 290.046,187.417 290.048 C 186.958 290.049,186.791 290.081,187.044 290.120 M188.958 290.118 C 189.165 290.157,189.502 290.157,189.708 290.118 C 189.915 290.078,189.746 290.045,189.333 290.045 C 188.921 290.045,188.752 290.078,188.958 290.118 M280.211 290.120 C 280.464 290.158,280.839 290.157,281.044 290.117 C 281.249 290.078,281.042 290.046,280.583 290.048 C 280.125 290.049,279.957 290.081,280.211 290.120 M282.125 290.118 C 282.331 290.157,282.669 290.157,282.875 290.118 C 283.081 290.078,282.912 290.045,282.500 290.045 C 282.087 290.045,281.919 290.078,282.125 290.118 M314.458 290.118 C 314.665 290.157,315.002 290.157,315.208 290.118 C 315.415 290.078,315.246 290.045,314.833 290.045 C 314.421 290.045,314.252 290.078,314.458 290.118 M346.044 290.120 C 346.297 290.158,346.672 290.157,346.877 290.117 C 347.082 290.078,346.875 290.046,346.417 290.048 C 345.958 290.049,345.791 290.081,346.044 290.120 M200.616 290.915 C 200.768 291.234,200.923 291.466,200.959 291.430 C 201.035 291.354,200.529 290.333,200.415 290.333 C 200.373 290.333,200.463 290.595,200.616 290.915 M96.333 291.552 C 96.333 291.581,96.577 291.825,96.875 292.094 L 97.417 292.583 96.927 292.042 C 96.471 291.537,96.333 291.423,96.333 291.552 M287.000 291.552 C 287.000 291.581,287.244 291.825,287.542 292.094 L 288.083 292.583 287.594 292.042 C 287.138 291.537,287.000 291.423,287.000 291.552 M181.824 292.292 L 181.250 292.917 181.875 292.342 C 182.219 292.026,182.500 291.745,182.500 291.717 C 182.500 291.590,182.359 291.710,181.824 292.292 M300.727 293.333 C 300.727 294.204,300.755 294.560,300.789 294.125 C 300.824 293.690,300.824 292.977,300.789 292.542 C 300.755 292.106,300.727 292.462,300.727 293.333 M216.411 305.750 C 216.411 311.158,216.433 313.347,216.458 310.613 C 216.484 307.879,216.484 303.454,216.458 300.780 C 216.432 298.105,216.411 300.342,216.411 305.750 M57.042 296.615 C 57.202 296.657,57.465 296.657,57.625 296.615 C 57.785 296.573,57.654 296.539,57.333 296.539 C 57.012 296.539,56.881 296.573,57.042 296.615 M345.042 296.615 C 345.202 296.657,345.465 296.657,345.625 296.615 C 345.785 296.573,345.654 296.539,345.333 296.539 C 345.012 296.539,344.881 296.573,345.042 296.615 M58.542 296.782 C 58.702 296.823,58.965 296.823,59.125 296.782 C 59.285 296.740,59.154 296.705,58.833 296.705 C 58.512 296.705,58.381 296.740,58.542 296.782 M104.875 297.250 C 104.877 297.617,104.911 297.747,104.951 297.540 C 104.991 297.332,104.990 297.032,104.948 296.873 C 104.906 296.714,104.874 296.883,104.875 297.250 M295.542 297.250 C 295.544 297.617,295.578 297.747,295.618 297.540 C 295.658 297.332,295.656 297.032,295.615 296.873 C 295.573 296.714,295.540 296.883,295.542 297.250 M346.542 296.782 C 346.702 296.823,346.965 296.823,347.125 296.782 C 347.285 296.740,347.154 296.705,346.833 296.705 C 346.512 296.705,346.381 296.740,346.542 296.782 M202.375 297.417 C 202.377 297.783,202.411 297.914,202.451 297.706 C 202.491 297.499,202.490 297.199,202.448 297.040 C 202.406 296.880,202.374 297.050,202.375 297.417 M172.872 298.167 C 172.872 298.487,172.906 298.619,172.948 298.458 C 172.990 298.298,172.990 298.035,172.948 297.875 C 172.906 297.715,172.872 297.846,172.872 298.167 M75.385 298.750 C 75.386 299.300,75.417 299.505,75.454 299.205 C 75.491 298.906,75.490 298.456,75.452 298.205 C 75.414 297.955,75.384 298.200,75.385 298.750 M266.052 298.750 C 266.053 299.300,266.084 299.505,266.121 299.205 C 266.158 298.906,266.157 298.456,266.119 298.205 C 266.081 297.955,266.051 298.200,266.052 298.750 M68.417 300.333 C 68.775 300.700,69.105 301.000,69.151 301.000 C 69.197 301.000,68.941 300.700,68.583 300.333 C 68.225 299.967,67.895 299.667,67.849 299.667 C 67.803 299.667,68.059 299.967,68.417 300.333 M356.417 300.333 C 356.775 300.700,357.105 301.000,357.151 301.000 C 357.197 301.000,356.941 300.700,356.583 300.333 C 356.225 299.967,355.895 299.667,355.849 299.667 C 355.803 299.667,356.059 299.967,356.417 300.333 M75.383 301.167 C 75.383 301.671,75.415 301.877,75.453 301.625 C 75.491 301.373,75.491 300.960,75.453 300.708 C 75.415 300.456,75.383 300.662,75.383 301.167 M266.050 301.167 C 266.050 301.671,266.081 301.877,266.119 301.625 C 266.158 301.373,266.158 300.960,266.119 300.708 C 266.081 300.456,266.050 300.662,266.050 301.167 M172.875 301.583 C 172.877 301.950,172.911 302.080,172.951 301.873 C 172.991 301.666,172.990 301.366,172.948 301.206 C 172.906 301.047,172.874 301.217,172.875 301.583 M64.542 306.417 C 64.544 306.783,64.578 306.914,64.618 306.706 C 64.658 306.499,64.656 306.199,64.615 306.040 C 64.573 305.880,64.540 306.050,64.542 306.417 M352.542 306.417 C 352.544 306.783,352.578 306.914,352.618 306.706 C 352.658 306.499,352.656 306.199,352.615 306.040 C 352.573 305.880,352.540 306.050,352.542 306.417 M70.705 306.500 C 70.705 306.821,70.740 306.952,70.782 306.792 C 70.823 306.631,70.823 306.369,70.782 306.208 C 70.740 306.048,70.705 306.179,70.705 306.500 M358.705 306.500 C 358.705 306.821,358.740 306.952,358.782 306.792 C 358.823 306.631,358.823 306.369,358.782 306.208 C 358.740 306.048,358.705 306.179,358.705 306.500 M84.083 307.500 C 84.441 307.867,84.772 308.167,84.818 308.167 C 84.863 308.167,84.608 307.867,84.250 307.500 C 83.892 307.133,83.562 306.833,83.516 306.833 C 83.470 306.833,83.725 307.133,84.083 307.500 M181.583 307.500 C 181.941 307.867,182.272 308.167,182.318 308.167 C 182.363 308.167,182.108 307.867,181.750 307.500 C 181.392 307.133,181.062 306.833,181.016 306.833 C 180.970 306.833,181.225 307.133,181.583 307.500 M274.750 307.500 C 275.108 307.867,275.438 308.167,275.484 308.167 C 275.530 308.167,275.275 307.867,274.917 307.500 C 274.559 307.133,274.228 306.833,274.182 306.833 C 274.137 306.833,274.392 307.133,274.750 307.500 M262.070 312.333 C 262.070 314.121,262.094 314.852,262.124 313.958 C 262.154 313.065,262.154 311.602,262.124 310.708 C 262.094 309.815,262.070 310.546,262.070 312.333 M89.711 310.120 C 89.964 310.158,90.339 310.157,90.544 310.117 C 90.749 310.078,90.542 310.046,90.083 310.048 C 89.625 310.049,89.457 310.081,89.711 310.120 M92.125 310.121 C 92.423 310.158,92.910 310.158,93.208 310.121 C 93.506 310.084,93.263 310.053,92.667 310.053 C 92.071 310.053,91.827 310.084,92.125 310.121 M187.211 310.120 C 187.464 310.158,187.839 310.157,188.044 310.117 C 188.249 310.078,188.042 310.046,187.583 310.048 C 187.125 310.049,186.957 310.081,187.211 310.120 M189.625 310.121 C 189.923 310.158,190.410 310.158,190.708 310.121 C 191.006 310.084,190.762 310.053,190.167 310.053 C 189.571 310.053,189.327 310.084,189.625 310.121 M280.377 310.120 C 280.631 310.158,281.006 310.157,281.211 310.117 C 281.416 310.078,281.208 310.046,280.750 310.048 C 280.292 310.049,280.124 310.081,280.377 310.120 M282.792 310.121 C 283.090 310.158,283.577 310.158,283.875 310.121 C 284.173 310.084,283.929 310.053,283.333 310.053 C 282.737 310.053,282.494 310.084,282.792 310.121 M56.294 310.285 C 56.501 310.324,56.801 310.323,56.960 310.281 C 57.120 310.239,56.950 310.207,56.583 310.209 C 56.217 310.211,56.086 310.245,56.294 310.285 M59.875 310.282 C 60.035 310.323,60.298 310.323,60.458 310.282 C 60.619 310.240,60.487 310.205,60.167 310.205 C 59.846 310.205,59.715 310.240,59.875 310.282 M312.794 310.285 C 313.001 310.324,313.301 310.323,313.460 310.281 C 313.620 310.239,313.450 310.207,313.083 310.209 C 312.717 310.211,312.586 310.245,312.794 310.285 M344.294 310.285 C 344.501 310.324,344.801 310.323,344.960 310.281 C 345.120 310.239,344.950 310.207,344.583 310.209 C 344.217 310.211,344.086 310.245,344.294 310.285 M347.875 310.282 C 348.035 310.323,348.298 310.323,348.458 310.282 C 348.619 310.240,348.488 310.205,348.167 310.205 C 347.846 310.205,347.715 310.240,347.875 310.282 M79.750 312.000 C 80.108 312.367,80.438 312.667,80.484 312.667 C 80.530 312.667,80.275 312.367,79.917 312.000 C 79.559 311.633,79.228 311.333,79.182 311.333 C 79.137 311.333,79.392 311.633,79.750 312.000 M177.250 312.000 C 177.608 312.367,177.938 312.667,177.984 312.667 C 178.030 312.667,177.775 312.367,177.417 312.000 C 177.059 311.633,176.728 311.333,176.682 311.333 C 176.637 311.333,176.892 311.633,177.250 312.000 M270.417 312.000 C 270.775 312.367,271.105 312.667,271.151 312.667 C 271.197 312.667,270.941 312.367,270.583 312.000 C 270.225 311.633,269.895 311.333,269.849 311.333 C 269.803 311.333,270.059 311.633,270.417 312.000 M68.167 312.750 C 67.762 313.162,67.468 313.500,67.514 313.500 C 67.560 313.500,67.928 313.162,68.333 312.750 C 68.738 312.337,69.032 312.000,68.986 312.000 C 68.940 312.000,68.572 312.337,68.167 312.750 M356.167 312.750 C 355.762 313.162,355.468 313.500,355.514 313.500 C 355.560 313.500,355.928 313.162,356.333 312.750 C 356.738 312.337,357.032 312.000,356.986 312.000 C 356.940 312.000,356.572 312.337,356.167 312.750 M56.042 316.121 C 56.385 316.157,56.948 316.157,57.292 316.121 C 57.635 316.085,57.354 316.056,56.667 316.056 C 55.979 316.056,55.698 316.085,56.042 316.121 M58.960 316.118 C 59.168 316.158,59.468 316.156,59.627 316.115 C 59.786 316.073,59.617 316.040,59.250 316.042 C 58.883 316.044,58.753 316.078,58.960 316.118 M312.455 316.120 C 312.750 316.157,313.275 316.158,313.621 316.122 C 313.967 316.086,313.725 316.055,313.083 316.055 C 312.442 316.054,312.159 316.083,312.455 316.120 M315.375 316.115 C 315.535 316.157,315.798 316.157,315.958 316.115 C 316.119 316.073,315.987 316.039,315.667 316.039 C 315.346 316.039,315.215 316.073,315.375 316.115 M344.042 316.121 C 344.385 316.157,344.948 316.157,345.292 316.121 C 345.635 316.085,345.354 316.056,344.667 316.056 C 343.979 316.056,343.698 316.085,344.042 316.121 M346.960 316.118 C 347.168 316.158,347.468 316.156,347.627 316.115 C 347.786 316.073,347.617 316.040,347.250 316.042 C 346.883 316.044,346.753 316.078,346.960 316.118 " stroke="none" fill="#8c8c8c" fill-rule="evenodd"></path></g></svg>